<svg width="260" height="312" viewBox="0 0 260 312" fill="none" xmlns="http://www.w3.org/2000/svg">
<mask id="mask0_13_764" style="mask-type:alpha" maskUnits="userSpaceOnUse" x="0" y="0" width="260" height="312">
<rect width="260" height="312" fill="white"/>
</mask>
<g mask="url(#mask0_13_764)">
<g opacity="0.1">
<mask id="path-2-inside-1_13_764" fill="white">
<path d="M375.594 386.985C405.687 359.175 427.51 323.59 438.652 284.159C449.794 244.727 449.823 202.984 438.734 163.537C427.645 124.091 405.871 88.4762 375.815 60.6259C345.759 32.7755 308.592 13.773 268.416 5.71662C228.241 -2.33977 186.62 0.863363 148.15 14.9723C109.68 29.0813 75.8582 53.5472 50.418 85.6685C24.9778 117.79 8.90936 156.317 3.98706 196.996C-0.935239 237.674 5.48005 278.922 22.5246 316.184L25.1264 314.994C8.30121 278.211 1.96847 237.494 6.82742 197.339C11.6864 157.184 27.548 119.153 52.6608 87.4449C77.7736 55.7369 111.161 31.5858 149.135 17.6584C187.11 3.73105 228.195 0.569139 267.854 8.52187C307.512 16.4746 344.202 35.2325 373.87 62.7245C403.539 90.2164 425.033 125.373 435.979 164.312C446.926 203.25 446.898 244.457 435.899 283.381C424.9 322.305 403.358 357.432 373.652 384.884L375.594 386.985Z"/>
</mask>
<path d="M375.594 386.985C405.687 359.175 427.51 323.59 438.652 284.159C449.794 244.727 449.823 202.984 438.734 163.537C427.645 124.091 405.871 88.4762 375.815 60.6259C345.759 32.7755 308.592 13.773 268.416 5.71662C228.241 -2.33977 186.62 0.863363 148.15 14.9723C109.68 29.0813 75.8582 53.5472 50.418 85.6685C24.9778 117.79 8.90936 156.317 3.98706 196.996C-0.935239 237.674 5.48005 278.922 22.5246 316.184L25.1264 314.994C8.30121 278.211 1.96847 237.494 6.82742 197.339C11.6864 157.184 27.548 119.153 52.6608 87.4449C77.7736 55.7369 111.161 31.5858 149.135 17.6584C187.11 3.73105 228.195 0.569139 267.854 8.52187C307.512 16.4746 344.202 35.2325 373.87 62.7245C403.539 90.2164 425.033 125.373 435.979 164.312C446.926 203.25 446.898 244.457 435.899 283.381C424.9 322.305 403.358 357.432 373.652 384.884L375.594 386.985Z" fill="#D9D9D9" stroke="#E28431" stroke-width="8" mask="url(#path-2-inside-1_13_764)"/>
<mask id="path-3-inside-2_13_764" fill="white">
<path d="M345.416 354.329C369.491 332.081 386.949 303.613 395.862 272.068C404.776 240.523 404.799 207.128 395.928 175.571C387.057 144.013 369.637 115.522 345.593 93.2413C321.548 70.9611 291.814 55.759 259.674 49.3139C227.533 42.8688 194.237 45.4313 163.461 56.7185C132.685 68.0057 105.627 87.5784 85.275 113.275C64.9229 138.972 52.0681 169.794 48.1303 202.337C44.1925 234.88 49.3247 267.878 62.9603 297.688L65.3603 296.59C51.9271 267.223 46.871 234.714 50.7504 202.654C54.6298 170.594 67.2938 140.23 87.344 114.914C107.394 89.5983 134.05 70.316 164.37 59.1963C194.689 48.0766 227.491 45.5521 259.155 51.9016C290.818 58.2511 320.111 73.2275 343.799 95.1772C367.487 117.127 384.648 145.196 393.387 176.285C402.126 207.374 402.104 240.273 393.323 271.35C384.541 302.427 367.342 330.473 343.625 352.39L345.416 354.329Z"/>
</mask>
<path d="M345.416 354.329C369.491 332.081 386.949 303.613 395.862 272.068C404.776 240.523 404.799 207.128 395.928 175.571C387.057 144.013 369.637 115.522 345.593 93.2413C321.548 70.9611 291.814 55.759 259.674 49.3139C227.533 42.8688 194.237 45.4313 163.461 56.7185C132.685 68.0057 105.627 87.5784 85.275 113.275C64.9229 138.972 52.0681 169.794 48.1303 202.337C44.1925 234.88 49.3247 267.878 62.9603 297.688L65.3603 296.59C51.9271 267.223 46.871 234.714 50.7504 202.654C54.6298 170.594 67.2938 140.23 87.344 114.914C107.394 89.5983 134.05 70.316 164.37 59.1963C194.689 48.0766 227.491 45.5521 259.155 51.9016C290.818 58.2511 320.111 73.2275 343.799 95.1772C367.487 117.127 384.648 145.196 393.387 176.285C402.126 207.374 402.104 240.273 393.323 271.35C384.541 302.427 367.342 330.473 343.625 352.39L345.416 354.329Z" fill="#D9D9D9" stroke="#E28431" stroke-width="8" mask="url(#path-3-inside-2_13_764)"/>
<mask id="path-4-inside-3_13_764" fill="white">
<path d="M317.319 323.924C335.79 306.855 349.184 285.013 356.023 260.81C362.862 236.608 362.88 210.986 356.074 186.774C349.267 162.562 335.902 140.702 317.454 123.607C299.007 106.513 276.193 94.8494 251.534 89.9044C226.874 84.9594 201.328 86.9255 177.715 95.5855C154.103 104.245 133.343 119.262 117.728 138.978C102.113 158.694 92.2503 182.342 89.2291 207.31C86.2078 232.278 90.1455 257.596 100.607 280.467L103.071 279.34C92.8174 256.923 88.9579 232.108 91.9192 207.636C94.8805 183.163 104.547 159.985 119.852 140.661C135.157 121.336 155.505 106.618 178.648 98.1296C201.792 89.6415 226.831 87.7145 251.001 92.5613C275.171 97.4081 297.531 108.84 315.613 125.595C333.694 142.35 346.794 163.776 353.465 187.507C360.136 211.238 360.119 236.351 353.416 260.073C346.713 283.796 333.584 305.204 315.48 321.934L317.319 323.924Z"/>
</mask>
<path d="M317.319 323.924C335.79 306.855 349.184 285.013 356.023 260.81C362.862 236.608 362.88 210.986 356.074 186.774C349.267 162.562 335.902 140.702 317.454 123.607C299.007 106.513 276.193 94.8494 251.534 89.9044C226.874 84.9594 201.328 86.9255 177.715 95.5855C154.103 104.245 133.343 119.262 117.728 138.978C102.113 158.694 92.2503 182.342 89.2291 207.31C86.2078 232.278 90.1455 257.596 100.607 280.467L103.071 279.34C92.8174 256.923 88.9579 232.108 91.9192 207.636C94.8805 183.163 104.547 159.985 119.852 140.661C135.157 121.336 155.505 106.618 178.648 98.1296C201.792 89.6415 226.831 87.7145 251.001 92.5613C275.171 97.4081 297.531 108.84 315.613 125.595C333.694 142.35 346.794 163.776 353.465 187.507C360.136 211.238 360.119 236.351 353.416 260.073C346.713 283.796 333.584 305.204 315.48 321.934L317.319 323.924Z" fill="#D9D9D9" stroke="#E28431" stroke-width="8" mask="url(#path-4-inside-3_13_764)"/>
<mask id="path-5-inside-4_13_764" fill="white">
<path d="M288.447 179.146C311.697 219.417 297.899 270.912 257.628 294.162C217.358 317.412 165.863 303.614 142.613 263.344C119.363 223.073 133.16 171.579 173.431 148.328C213.702 125.078 265.196 138.876 288.447 179.146ZM145.193 261.854C167.621 300.7 217.293 314.009 256.139 291.581C294.984 269.154 308.294 219.482 285.866 180.636C263.439 141.791 213.767 128.481 174.921 150.909C136.075 173.336 122.766 223.008 145.193 261.854Z"/>
</mask>
<path d="M288.447 179.146C311.697 219.417 297.899 270.912 257.628 294.162C217.358 317.412 165.863 303.614 142.613 263.344C119.363 223.073 133.16 171.579 173.431 148.328C213.702 125.078 265.196 138.876 288.447 179.146ZM145.193 261.854C167.621 300.7 217.293 314.009 256.139 291.581C294.984 269.154 308.294 219.482 285.866 180.636C263.439 141.791 213.767 128.481 174.921 150.909C136.075 173.336 122.766 223.008 145.193 261.854Z" fill="#D9D9D9" stroke="#E28431" stroke-width="8" mask="url(#path-5-inside-4_13_764)"/>
</g>
</g>
</svg>
