<svg width="146" height="52" viewBox="0 0 146 52" fill="none" xmlns="http://www.w3.org/2000/svg">
<path d="M39.4351 18.1814C39.6947 18.6224 40.2779 18.7775 40.7359 18.5275C41.0461 18.3583 41.2198 18.0481 41.2198 17.727C41.2198 17.5738 41.1799 17.418 41.096 17.2751C37.6103 11.3559 31.0595 7.67805 24.0007 7.67805C16.9421 7.67805 10.3901 11.3546 6.90541 17.2733C6.64645 17.7155 6.80622 18.2757 7.2649 18.5257C7.72292 18.7757 8.3061 18.6212 8.56572 18.1802C11.7133 12.836 17.6275 9.51635 24.0011 9.51635C30.3746 9.51635 36.2891 12.8365 39.4358 18.1815L39.4351 18.1814Z" fill="#FF3B3B"/>
<path d="M47.9989 13.8544C47.9989 13.7012 47.959 13.5455 47.8751 13.4025C43.0067 5.1354 33.8583 1.95008e-05 23.9986 1.99318e-05C14.1392 2.03628e-05 4.9911 5.13475 0.123773 13.4006C-0.135187 13.8428 0.0252476 14.403 0.483267 14.653C0.941284 14.903 1.52446 14.7485 1.78408 14.3069C6.31227 6.6147 14.825 1.83768 23.9972 1.83768C33.1709 1.83768 41.6822 6.61667 46.2121 14.3088C46.4717 14.7498 47.0549 14.9049 47.5129 14.655C47.8251 14.4858 47.9982 14.1742 47.9982 13.8544L47.9989 13.8544Z" fill="#FF3B3B"/>
<path d="M8.56427 33.8201C8.30465 33.3791 7.72147 33.224 7.26346 33.4746C6.80411 33.7246 6.645 34.2841 6.90396 34.727C10.3897 40.6456 16.9411 44.3223 23.9993 44.3223C31.0586 44.3223 37.6099 40.6451 41.0946 34.7252C41.1785 34.5817 41.2184 34.4265 41.2184 34.2734C41.2184 33.9529 41.044 33.642 40.7344 33.4728C40.2764 33.2228 39.6932 33.3773 39.4336 33.8189C36.2867 39.1638 30.3725 42.4841 23.9982 42.4841C17.6252 42.4841 11.7103 39.1647 8.56355 33.8202L8.56427 33.8201Z" fill="#FF3B3B"/>
<path d="M47.8761 38.5968C47.9599 38.4533 47.9999 38.2981 47.9999 38.145C47.9999 37.8245 47.8255 37.5136 47.5159 37.3444C47.0579 37.0944 46.4747 37.2489 46.2151 37.6905C41.6855 45.3833 33.1737 50.1617 24.0002 50.1617C14.8266 50.1617 6.31524 45.3833 1.78705 37.6925C1.52743 37.2515 0.944251 37.0964 0.486235 37.3464C0.0268887 37.5963 -0.132219 38.1578 0.126741 38.5988C4.99509 46.8653 14.1428 52 24.0015 52C33.8615 52 43.0073 46.8653 47.8763 38.5968L47.8761 38.5968Z" fill="#FF3B3B"/>
<path d="M23.8885 17C29.1085 17 33.2749 21.0648 33.2749 26C33.2749 30.9352 29.1085 35 23.8885 35C18.6685 35 14.5022 30.9352 14.5022 26C14.5022 21.0648 18.6685 17 23.8885 17Z" stroke="#FF3B3B" stroke-width="2"/>
<path d="M64.8622 19.6989H66.3736L67.4375 21.0859L67.9396 21.7024L69.6349 23.9148H68.0639L66.9304 22.4382L66.5426 21.9013L64.8622 19.6989ZM69.9631 17.9091C69.9631 18.9962 69.7642 19.9309 69.3665 20.7131C68.9688 21.492 68.4235 22.0919 67.7308 22.5128C67.0414 22.9304 66.2576 23.1392 65.3793 23.1392C64.4976 23.1392 63.7105 22.9304 63.0178 22.5128C62.3284 22.0919 61.7848 21.4903 61.3871 20.7081C60.9893 19.9259 60.7905 18.9929 60.7905 17.9091C60.7905 16.822 60.9893 15.889 61.3871 15.1101C61.7848 14.3279 62.3284 13.728 63.0178 13.3104C63.7105 12.8894 64.4976 12.679 65.3793 12.679C66.2576 12.679 67.0414 12.8894 67.7308 13.3104C68.4235 13.728 68.9688 14.3279 69.3665 15.1101C69.7642 15.889 69.9631 16.822 69.9631 17.9091ZM68.4418 17.9091C68.4418 17.0805 68.3075 16.3828 68.0391 15.8161C67.7739 15.246 67.4093 14.8151 66.9453 14.5234C66.4846 14.2285 65.9626 14.081 65.3793 14.081C64.7926 14.081 64.2689 14.2285 63.8082 14.5234C63.3475 14.8151 62.983 15.246 62.7145 15.8161C62.4493 16.3828 62.3168 17.0805 62.3168 17.9091C62.3168 18.7377 62.4493 19.437 62.7145 20.0071C62.983 20.5739 63.3475 21.0047 63.8082 21.2997C64.2689 21.5914 64.7926 21.7372 65.3793 21.7372C65.9626 21.7372 66.4846 21.5914 66.9453 21.2997C67.4093 21.0047 67.7739 20.5739 68.0391 20.0071C68.3075 19.437 68.4418 18.7377 68.4418 17.9091ZM76.5964 19.8331V15.3636H78.0879V23H76.6262V21.6776H76.5467C76.371 22.0852 76.0893 22.425 75.7015 22.6967C75.3171 22.9652 74.8381 23.0994 74.2647 23.0994C73.7742 23.0994 73.34 22.9917 72.9622 22.7763C72.5877 22.5575 72.2927 22.2344 72.0772 21.8068C71.8651 21.3793 71.7591 20.8506 71.7591 20.2209V15.3636H73.2456V20.0419C73.2456 20.5623 73.3897 20.9766 73.6781 21.2848C73.9664 21.593 74.341 21.7472 74.8017 21.7472C75.0801 21.7472 75.3568 21.6776 75.6319 21.5384C75.9103 21.3991 76.1407 21.1887 76.323 20.907C76.5086 20.6252 76.5997 20.2673 76.5964 19.8331ZM82.3075 23.169C81.8236 23.169 81.3861 23.0795 80.995 22.9006C80.6039 22.7183 80.294 22.4548 80.0653 22.1101C79.84 21.7654 79.7273 21.3428 79.7273 20.8423C79.7273 20.4115 79.8101 20.0568 79.9759 19.7784C80.1416 19.5 80.3653 19.2796 80.647 19.1172C80.9287 18.9548 81.2436 18.8321 81.5916 18.7493C81.9396 18.6664 82.2943 18.6035 82.6555 18.5604C83.1129 18.5073 83.4841 18.4643 83.7692 18.4311C84.0542 18.3946 84.2614 18.3366 84.3906 18.2571C84.5199 18.1776 84.5845 18.0483 84.5845 17.8693V17.8345C84.5845 17.4003 84.4619 17.0639 84.2166 16.8253C83.9747 16.5866 83.6134 16.4673 83.1328 16.4673C82.6323 16.4673 82.2379 16.5784 81.9496 16.8004C81.6645 17.0192 81.4673 17.2628 81.358 17.5312L79.9609 17.2131C80.1267 16.7491 80.3686 16.3745 80.6868 16.0895C81.0083 15.8011 81.3778 15.5923 81.7955 15.4631C82.2131 15.3305 82.6522 15.2642 83.1129 15.2642C83.4179 15.2642 83.741 15.3007 84.0824 15.3736C84.4271 15.4432 84.7486 15.5724 85.0469 15.7614C85.3485 15.9503 85.5954 16.2204 85.7876 16.5717C85.9799 16.9197 86.076 17.3722 86.076 17.929V23H84.6243V21.956H84.5646C84.4685 22.1482 84.3243 22.3371 84.1321 22.5227C83.9399 22.7083 83.6929 22.8625 83.3913 22.9851C83.0897 23.1077 82.7285 23.169 82.3075 23.169ZM82.6307 21.9759C83.0417 21.9759 83.393 21.8946 83.6847 21.7322C83.9796 21.5698 84.2034 21.3577 84.3558 21.0959C84.5116 20.8307 84.5895 20.5473 84.5895 20.2457V19.2614C84.5365 19.3144 84.4337 19.3641 84.2812 19.4105C84.1321 19.4536 83.9614 19.4917 83.7692 19.5249C83.5769 19.5547 83.3897 19.5829 83.2074 19.6094C83.0251 19.6326 82.8726 19.6525 82.75 19.669C82.4616 19.7055 82.1982 19.7668 81.9595 19.853C81.7242 19.9392 81.5353 20.0634 81.3928 20.2259C81.2536 20.3849 81.1839 20.5971 81.1839 20.8622C81.1839 21.2301 81.3198 21.5085 81.5916 21.6974C81.8634 21.883 82.2098 21.9759 82.6307 21.9759ZM88.0559 23V15.3636H89.4828V16.6065H89.5772C89.7363 16.1856 89.9965 15.8575 90.3578 15.6222C90.719 15.3835 91.1516 15.2642 91.6554 15.2642C92.1658 15.2642 92.5933 15.3835 92.938 15.6222C93.286 15.8608 93.5429 16.1889 93.7086 16.6065H93.7882C93.9705 16.1989 94.2605 15.8741 94.6582 15.6321C95.0559 15.3868 95.5299 15.2642 96.0801 15.2642C96.7728 15.2642 97.3379 15.4813 97.7754 15.9155C98.2162 16.3497 98.4366 17.0043 98.4366 17.8793V23H96.9501V18.0185C96.9501 17.5014 96.8092 17.1269 96.5275 16.8949C96.2458 16.6629 95.9094 16.5469 95.5183 16.5469C95.0344 16.5469 94.6582 16.696 94.3897 16.9943C94.1213 17.2893 93.987 17.6688 93.987 18.1328V23H92.5055V17.924C92.5055 17.5097 92.3762 17.1766 92.1177 16.9247C91.8592 16.6728 91.5228 16.5469 91.1085 16.5469C90.8268 16.5469 90.5666 16.6214 90.3279 16.7706C90.0926 16.9164 89.902 17.1203 89.7562 17.3821C89.6137 17.6439 89.5424 17.9472 89.5424 18.2919V23H88.0559ZM66.6719 32.4929C66.6188 32.0223 66.4001 31.6577 66.0156 31.3991C65.6312 31.1373 65.1473 31.0064 64.5639 31.0064C64.1463 31.0064 63.785 31.0727 63.4801 31.2053C63.1752 31.3345 62.9382 31.5135 62.7692 31.7422C62.6035 31.9676 62.5206 32.2244 62.5206 32.5128C62.5206 32.7547 62.5769 32.9635 62.6896 33.1392C62.8056 33.3149 62.9564 33.4624 63.142 33.5817C63.331 33.6977 63.5331 33.7955 63.7486 33.875C63.964 33.9512 64.1712 34.0142 64.37 34.0639L65.3643 34.3224C65.6892 34.402 66.0223 34.5097 66.3636 34.6456C66.705 34.7815 67.0215 34.9605 67.3132 35.1825C67.6049 35.4046 67.8402 35.6797 68.0192 36.0078C68.2015 36.3359 68.2926 36.7287 68.2926 37.1861C68.2926 37.7628 68.1435 38.2749 67.8452 38.7223C67.5502 39.1697 67.121 39.5227 66.5575 39.7812C65.9974 40.0398 65.3196 40.169 64.5241 40.169C63.7618 40.169 63.1023 40.0481 62.5455 39.8061C61.9886 39.5642 61.5528 39.2211 61.2379 38.777C60.9231 38.3295 60.7491 37.7992 60.7159 37.1861H62.2571C62.2869 37.554 62.4063 37.8606 62.6151 38.1058C62.8272 38.3478 63.0973 38.5284 63.4254 38.6477C63.7569 38.7637 64.1198 38.8217 64.5142 38.8217C64.9484 38.8217 65.3345 38.7538 65.6726 38.6179C66.014 38.4787 66.2824 38.2865 66.478 38.0412C66.6735 37.7926 66.7713 37.5026 66.7713 37.1712C66.7713 36.8696 66.6851 36.6226 66.5128 36.4304C66.3438 36.2382 66.1134 36.0791 65.8217 35.9531C65.5334 35.8272 65.2069 35.7161 64.8423 35.62L63.6392 35.2919C62.8239 35.0698 62.1776 34.7434 61.7003 34.3125C61.2263 33.8816 60.9893 33.3116 60.9893 32.6023C60.9893 32.0156 61.1484 31.5036 61.4666 31.0661C61.7848 30.6286 62.2157 30.2888 62.7592 30.0469C63.3028 29.8016 63.916 29.679 64.5987 29.679C65.2881 29.679 65.8963 29.8 66.4233 30.0419C66.9536 30.2839 67.3712 30.617 67.6761 31.0412C67.9811 31.4621 68.1402 31.946 68.1534 32.4929H66.6719ZM74.8464 36.8331V32.3636H76.3379V40H74.8762V38.6776H74.7967C74.621 39.0852 74.3393 39.425 73.9515 39.6967C73.5671 39.9652 73.0881 40.0994 72.5147 40.0994C72.0242 40.0994 71.59 39.9917 71.2122 39.7763C70.8377 39.5575 70.5427 39.2344 70.3272 38.8068C70.1151 38.3793 70.0091 37.8506 70.0091 37.2209V32.3636H71.4956V37.0419C71.4956 37.5623 71.6397 37.9766 71.9281 38.2848C72.2164 38.593 72.591 38.7472 73.0517 38.7472C73.3301 38.7472 73.6068 38.6776 73.8819 38.5384C74.1603 38.3991 74.3907 38.1887 74.573 37.907C74.7586 37.6252 74.8497 37.2673 74.8464 36.8331ZM84.0575 34.228L82.7102 34.4666C82.6539 34.2943 82.5644 34.1302 82.4418 33.9744C82.3224 33.8187 82.16 33.6911 81.9545 33.5916C81.7491 33.4922 81.4922 33.4425 81.1839 33.4425C80.763 33.4425 80.4117 33.5369 80.13 33.7259C79.8482 33.9115 79.7074 34.1518 79.7074 34.4467C79.7074 34.7019 79.8018 34.9074 79.9908 35.0632C80.1797 35.219 80.4846 35.3466 80.9055 35.446L82.1186 35.7244C82.8213 35.8868 83.3449 36.1371 83.6896 36.4751C84.0343 36.8132 84.2067 37.2524 84.2067 37.7926C84.2067 38.25 84.0741 38.6577 83.8089 39.0156C83.5471 39.3703 83.1809 39.6487 82.7102 39.8509C82.2429 40.053 81.701 40.1541 81.0845 40.1541C80.2294 40.1541 79.5317 39.9718 78.9915 39.6072C78.4512 39.2393 78.1198 38.7173 77.9972 38.0412L79.4339 37.8224C79.5234 38.197 79.7074 38.4804 79.9858 38.6726C80.2642 38.8615 80.6271 38.956 81.0746 38.956C81.5618 38.956 81.9512 38.8549 82.2429 38.6527C82.5346 38.4472 82.6804 38.197 82.6804 37.902C82.6804 37.6634 82.5909 37.4628 82.4119 37.3004C82.2363 37.138 81.9661 37.0154 81.6016 36.9325L80.3089 36.6491C79.5964 36.4867 79.0694 36.2282 78.728 35.8736C78.3899 35.5189 78.2209 35.0698 78.2209 34.5263C78.2209 34.0755 78.3468 33.6811 78.5987 33.343C78.8506 33.005 79.1986 32.7415 79.6428 32.5526C80.0869 32.3603 80.5956 32.2642 81.169 32.2642C81.9943 32.2642 82.6439 32.4432 83.1179 32.8011C83.5919 33.1558 83.9051 33.6314 84.0575 34.228ZM85.8411 42.8636V32.3636H87.2928V33.6016H87.4171C87.5033 33.4425 87.6275 33.2585 87.79 33.0497C87.9524 32.8409 88.1777 32.6586 88.4661 32.5028C88.7544 32.3438 89.1356 32.2642 89.6096 32.2642C90.226 32.2642 90.7762 32.42 91.2601 32.7315C91.744 33.0431 92.1235 33.4922 92.3986 34.0788C92.677 34.6655 92.8162 35.3714 92.8162 36.1967C92.8162 37.022 92.6787 37.7296 92.4036 38.3196C92.1285 38.9062 91.7507 39.3587 91.2701 39.6768C90.7895 39.9917 90.2409 40.1491 89.6245 40.1491C89.1605 40.1491 88.781 40.0713 88.486 39.9155C88.1943 39.7597 87.9656 39.5774 87.7999 39.3686C87.6342 39.1598 87.5066 38.9742 87.4171 38.8118H87.3276V42.8636H85.8411ZM87.2978 36.1818C87.2978 36.7187 87.3757 37.1894 87.5314 37.5938C87.6872 37.9981 87.9126 38.3146 88.2076 38.5433C88.5025 38.7687 88.8638 38.8814 89.2914 38.8814C89.7355 38.8814 90.1067 38.7637 90.405 38.5284C90.7033 38.2898 90.9287 37.9666 91.0811 37.5589C91.2369 37.1513 91.3148 36.6922 91.3148 36.1818C91.3148 35.678 91.2386 35.2256 91.0861 34.8246C90.937 34.4235 90.7116 34.107 90.41 33.875C90.1117 33.643 89.7388 33.527 89.2914 33.527C88.8605 33.527 88.4959 33.638 88.1976 33.8601C87.9026 34.0821 87.6789 34.392 87.5265 34.7898C87.374 35.1875 87.2978 35.6515 87.2978 36.1818ZM97.7729 40.1541C97.0205 40.1541 96.3726 39.9934 95.829 39.6719C95.2888 39.3471 94.8712 38.8913 94.5762 38.3047C94.2845 37.7147 94.1387 37.0237 94.1387 36.2315C94.1387 35.4493 94.2845 34.7599 94.5762 34.1634C94.8712 33.5668 95.2821 33.1011 95.8091 32.7663C96.3394 32.4316 96.9592 32.2642 97.6685 32.2642C98.0994 32.2642 98.517 32.3355 98.9213 32.478C99.3257 32.6205 99.6886 32.8442 100.01 33.1491C100.332 33.4541 100.585 33.8501 100.771 34.3374C100.956 34.8213 101.049 35.4096 101.049 36.1023V36.6293H94.9789V35.5156H99.5925C99.5925 35.1245 99.513 34.7782 99.3539 34.4766C99.1948 34.1716 98.9711 33.9313 98.6827 33.7557C98.3977 33.58 98.0629 33.4922 97.6784 33.4922C97.2608 33.4922 96.8962 33.5949 96.5847 33.8004C96.2765 34.0026 96.0378 34.2678 95.8688 34.5959C95.7031 34.9207 95.6202 35.2737 95.6202 35.6548V36.5249C95.6202 37.0353 95.7097 37.4695 95.8887 37.8274C96.071 38.1854 96.3245 38.4588 96.6493 38.6477C96.9741 38.8333 97.3536 38.9261 97.7878 38.9261C98.0695 38.9261 98.3264 38.8864 98.5584 38.8068C98.7904 38.724 98.9909 38.6013 99.16 38.4389C99.329 38.2765 99.4583 38.076 99.5478 37.8374L100.955 38.0909C100.842 38.5052 100.64 38.8681 100.348 39.1797C100.06 39.4879 99.6969 39.7282 99.2594 39.9006C98.8252 40.0696 98.3297 40.1541 97.7729 40.1541ZM104.185 35.4659V40H102.699V32.3636H104.125V33.6065H104.22C104.395 33.2022 104.671 32.8774 105.045 32.6321C105.423 32.3868 105.899 32.2642 106.472 32.2642C106.992 32.2642 107.448 32.3736 107.839 32.5923C108.23 32.8078 108.533 33.1293 108.749 33.5568C108.964 33.9844 109.072 34.513 109.072 35.1428V40H107.586V35.3217C107.586 34.7682 107.441 34.3357 107.153 34.0241C106.865 33.7093 106.469 33.5518 105.965 33.5518C105.62 33.5518 105.314 33.6264 105.045 33.7756C104.78 33.9247 104.569 34.1435 104.414 34.4318C104.261 34.7169 104.185 35.0616 104.185 35.4659ZM113.924 40.1491C113.308 40.1491 112.758 39.9917 112.274 39.6768C111.793 39.3587 111.415 38.9062 111.14 38.3196C110.868 37.7296 110.733 37.022 110.733 36.1967C110.733 35.3714 110.87 34.6655 111.145 34.0788C111.424 33.4922 111.805 33.0431 112.289 32.7315C112.773 32.42 113.321 32.2642 113.934 32.2642C114.408 32.2642 114.789 32.3438 115.078 32.5028C115.369 32.6586 115.595 32.8409 115.754 33.0497C115.916 33.2585 116.042 33.4425 116.132 33.6016H116.221V29.8182H117.708V40H116.256V38.8118H116.132C116.042 38.9742 115.913 39.1598 115.744 39.3686C115.578 39.5774 115.35 39.7597 115.058 39.9155C114.766 40.0713 114.388 40.1491 113.924 40.1491ZM114.252 38.8814C114.68 38.8814 115.041 38.7687 115.336 38.5433C115.635 38.3146 115.86 37.9981 116.012 37.5938C116.168 37.1894 116.246 36.7187 116.246 36.1818C116.246 35.6515 116.17 35.1875 116.017 34.7898C115.865 34.392 115.641 34.0821 115.346 33.8601C115.051 33.638 114.687 33.527 114.252 33.527C113.805 33.527 113.432 33.643 113.134 33.875C112.836 34.107 112.61 34.4235 112.458 34.8246C112.309 35.2256 112.234 35.678 112.234 36.1818C112.234 36.6922 112.31 37.1513 112.463 37.5589C112.615 37.9666 112.841 38.2898 113.139 38.5284C113.44 38.7637 113.812 38.8814 114.252 38.8814ZM119.829 40V32.3636H121.316V40H119.829ZM120.58 31.1854C120.322 31.1854 120.099 31.0992 119.914 30.9268C119.732 30.7512 119.64 30.5424 119.64 30.3004C119.64 30.0552 119.732 29.8464 119.914 29.674C120.099 29.4983 120.322 29.4105 120.58 29.4105C120.839 29.4105 121.059 29.4983 121.241 29.674C121.427 29.8464 121.52 30.0552 121.52 30.3004C121.52 30.5424 121.427 30.7512 121.241 30.9268C121.059 31.0992 120.839 31.1854 120.58 31.1854ZM129.038 34.228L127.691 34.4666C127.634 34.2943 127.545 34.1302 127.422 33.9744C127.303 33.8187 127.141 33.6911 126.935 33.5916C126.73 33.4922 126.473 33.4425 126.164 33.4425C125.743 33.4425 125.392 33.5369 125.11 33.7259C124.829 33.9115 124.688 34.1518 124.688 34.4467C124.688 34.7019 124.782 34.9074 124.971 35.0632C125.16 35.219 125.465 35.3466 125.886 35.446L127.099 35.7244C127.802 35.8868 128.325 36.1371 128.67 36.4751C129.015 36.8132 129.187 37.2524 129.187 37.7926C129.187 38.25 129.055 38.6577 128.789 39.0156C128.528 39.3703 128.161 39.6487 127.691 39.8509C127.223 40.053 126.681 40.1541 126.065 40.1541C125.21 40.1541 124.512 39.9718 123.972 39.6072C123.432 39.2393 123.1 38.7173 122.978 38.0412L124.414 37.8224C124.504 38.197 124.688 38.4804 124.966 38.6726C125.245 38.8615 125.608 38.956 126.055 38.956C126.542 38.956 126.932 38.8549 127.223 38.6527C127.515 38.4472 127.661 38.197 127.661 37.902C127.661 37.6634 127.571 37.4628 127.392 37.3004C127.217 37.138 126.947 37.0154 126.582 36.9325L125.289 36.6491C124.577 36.4867 124.05 36.2282 123.708 35.8736C123.37 35.5189 123.201 35.0698 123.201 34.5263C123.201 34.0755 123.327 33.6811 123.579 33.343C123.831 33.005 124.179 32.7415 124.623 32.5526C125.067 32.3603 125.576 32.2642 126.15 32.2642C126.975 32.2642 127.624 32.4432 128.098 32.8011C128.572 33.1558 128.886 33.6314 129.038 34.228ZM136.544 34.228L135.197 34.4666C135.14 34.2943 135.051 34.1302 134.928 33.9744C134.809 33.8187 134.646 33.6911 134.441 33.5916C134.235 33.4922 133.979 33.4425 133.67 33.4425C133.249 33.4425 132.898 33.5369 132.616 33.7259C132.335 33.9115 132.194 34.1518 132.194 34.4467C132.194 34.7019 132.288 34.9074 132.477 35.0632C132.666 35.219 132.971 35.3466 133.392 35.446L134.605 35.7244C135.308 35.8868 135.831 36.1371 136.176 36.4751C136.521 36.8132 136.693 37.2524 136.693 37.7926C136.693 38.25 136.56 38.6577 136.295 39.0156C136.033 39.3703 135.667 39.6487 135.197 39.8509C134.729 40.053 134.187 40.1541 133.571 40.1541C132.716 40.1541 132.018 39.9718 131.478 39.6072C130.938 39.2393 130.606 38.7173 130.483 38.0412L131.92 37.8224C132.01 38.197 132.194 38.4804 132.472 38.6726C132.751 38.8615 133.113 38.956 133.561 38.956C134.048 38.956 134.438 38.8549 134.729 38.6527C135.021 38.4472 135.167 38.197 135.167 37.902C135.167 37.6634 135.077 37.4628 134.898 37.3004C134.723 37.138 134.452 37.0154 134.088 36.9325L132.795 36.6491C132.083 36.4867 131.556 36.2282 131.214 35.8736C130.876 35.5189 130.707 35.0698 130.707 34.5263C130.707 34.0755 130.833 33.6811 131.085 33.343C131.337 33.005 131.685 32.7415 132.129 32.5526C132.573 32.3603 133.082 32.2642 133.655 32.2642C134.481 32.2642 135.13 32.4432 135.604 32.8011C136.078 33.1558 136.391 33.6314 136.544 34.228ZM141.619 40.1541C140.866 40.1541 140.218 39.9934 139.675 39.6719C139.134 39.3471 138.717 38.8913 138.422 38.3047C138.13 37.7147 137.984 37.0237 137.984 36.2315C137.984 35.4493 138.13 34.7599 138.422 34.1634C138.717 33.5668 139.128 33.1011 139.655 32.7663C140.185 32.4316 140.805 32.2642 141.514 32.2642C141.945 32.2642 142.363 32.3355 142.767 32.478C143.171 32.6205 143.534 32.8442 143.856 33.1491C144.177 33.4541 144.431 33.8501 144.616 34.3374C144.802 34.8213 144.895 35.4096 144.895 36.1023V36.6293H138.825V35.5156H143.438C143.438 35.1245 143.359 34.7782 143.2 34.4766C143.04 34.1716 142.817 33.9313 142.528 33.7557C142.243 33.58 141.909 33.4922 141.524 33.4922C141.107 33.4922 140.742 33.5949 140.43 33.8004C140.122 34.0026 139.884 34.2678 139.714 34.5959C139.549 34.9207 139.466 35.2737 139.466 35.6548V36.5249C139.466 37.0353 139.555 37.4695 139.734 37.8274C139.917 38.1854 140.17 38.4588 140.495 38.6477C140.82 38.8333 141.199 38.9261 141.634 38.9261C141.915 38.9261 142.172 38.8864 142.404 38.8068C142.636 38.724 142.837 38.6013 143.006 38.4389C143.175 38.2765 143.304 38.076 143.393 37.8374L144.8 38.0909C144.688 38.5052 144.486 38.8681 144.194 39.1797C143.906 39.4879 143.543 39.7282 143.105 39.9006C142.671 40.0696 142.175 40.1541 141.619 40.1541Z" fill="#0A0A0A"/>
</svg>
